# Blender 4.0.0
# www.blender.org
mtllib white_square.mtl
o Plane
v -0.500000 0.016975 0.483025
v -0.483025 0.000000 0.483025
v -0.483025 0.016975 0.500000
v -0.497732 0.008499 0.483025
v -0.497732 0.016975 0.491501
v -0.495529 0.008858 0.491142
v -0.483025 0.002268 0.491501
v -0.491501 0.002268 0.483025
v -0.491142 0.004471 0.491142
v -0.491501 0.016975 0.497732
v -0.483025 0.008499 0.497732
v -0.491142 0.008858 0.495529
v 0.483025 0.016975 0.500000
v 0.483025 0.000000 0.483025
v 0.500000 0.016975 0.483025
v 0.483025 0.008499 0.497732
v 0.491501 0.016975 0.497732
v 0.491142 0.008858 0.495529
v 0.491501 0.002268 0.483025
v 0.483025 0.002268 0.491501
v 0.491142 0.004471 0.491142
v 0.497732 0.016975 0.491501
v 0.497732 0.008499 0.483025
v 0.495529 0.008858 0.491142
v -0.500000 0.016975 -0.483025
v -0.483025 0.016975 -0.500000
v -0.483025 0.000000 -0.483025
v -0.497732 0.016975 -0.491501
v -0.497732 0.008499 -0.483025
v -0.495529 0.008858 -0.491142
v -0.483025 0.008499 -0.497732
v -0.491501 0.016975 -0.497732
v -0.491142 0.008858 -0.495529
v -0.491501 0.002268 -0.483025
v -0.483025 0.002268 -0.491501
v -0.491142 0.004471 -0.491142
v 0.500000 0.016975 -0.483025
v 0.483025 0.000000 -0.483025
v 0.483025 0.016975 -0.500000
v 0.497732 0.008499 -0.483025
v 0.497732 0.016975 -0.491501
v 0.495529 0.008858 -0.491142
v 0.483025 0.002268 -0.491501
v 0.491501 0.002268 -0.483025
v 0.491142 0.004471 -0.491142
v 0.491501 0.016975 -0.497732
v 0.483025 0.008499 -0.497732
v 0.491142 0.008858 -0.495529
v -0.500000 0.033025 0.483025
v -0.483025 0.033025 0.500000
v -0.483025 0.050000 0.483025
v -0.497732 0.033025 0.491501
v -0.497732 0.041501 0.483025
v -0.495529 0.041142 0.491142
v -0.483025 0.041501 0.497732
v -0.491501 0.033025 0.497732
v -0.491142 0.041142 0.495529
v -0.491501 0.047732 0.483025
v -0.483025 0.047732 0.491501
v -0.491142 0.045529 0.491142
v 0.483025 0.033025 0.500000
v 0.500000 0.033025 0.483025
v 0.483025 0.050000 0.483025
v 0.491501 0.033025 0.497732
v 0.483025 0.041501 0.497732
v 0.491142 0.041142 0.495529
v 0.497732 0.041501 0.483025
v 0.497732 0.033025 0.491501
v 0.495529 0.041142 0.491142
v 0.483025 0.047732 0.491501
v 0.491501 0.047732 0.483025
v 0.491142 0.045529 0.491142
v -0.500000 0.033025 -0.483025
v -0.483025 0.050000 -0.483025
v -0.483025 0.033025 -0.500000
v -0.497732 0.041501 -0.483025
v -0.497732 0.033025 -0.491501
v -0.495529 0.041142 -0.491142
v -0.483025 0.047732 -0.491501
v -0.491501 0.047732 -0.483025
v -0.491142 0.045529 -0.491142
v -0.491501 0.033025 -0.497732
v -0.483025 0.041501 -0.497732
v -0.491142 0.041142 -0.495529
v 0.500000 0.033025 -0.483025
v 0.483025 0.033025 -0.500000
v 0.483025 0.050000 -0.483025
v 0.497732 0.033025 -0.491501
v 0.497732 0.041501 -0.483025
v 0.495529 0.041142 -0.491142
v 0.483025 0.041501 -0.497732
v 0.491501 0.033025 -0.497732
v 0.491142 0.041142 -0.495529
v 0.491501 0.047732 -0.483025
v 0.483025 0.047732 -0.491501
v 0.491142 0.045529 -0.491142
vn -0.0000 -0.0000 1.0000
vn -0.0000 1.0000 -0.0000
vn 1.0000 -0.0000 -0.0000
vn -0.0000 -0.0000 -1.0000
vn -0.0000 -1.0000 -0.0000
vn -0.9318 -0.2566 0.2566
vn -0.6901 -0.6901 0.2178
vn -0.2566 -0.9318 0.2566
vn -0.2178 -0.6901 0.6901
vn -0.2566 -0.2566 0.9318
vn -0.6901 -0.2178 0.6901
vn -0.5773 -0.5774 0.5774
vn 0.2566 -0.2566 0.9318
vn 0.2178 -0.6901 0.6901
vn 0.2566 -0.9318 0.2566
vn 0.6901 -0.6901 0.2178
vn 0.9318 -0.2566 0.2566
vn 0.6901 -0.2178 0.6901
vn 0.5773 -0.5774 0.5774
vn -0.9318 -0.2566 -0.2566
vn -0.6901 -0.2178 -0.6901
vn -0.2566 -0.2566 -0.9318
vn -0.2178 -0.6901 -0.6901
vn -0.2566 -0.9318 -0.2566
vn -0.6901 -0.6901 -0.2178
vn -0.5773 -0.5774 -0.5774
vn 0.9318 -0.2566 -0.2566
vn 0.6901 -0.6901 -0.2178
vn 0.2566 -0.9318 -0.2566
vn 0.2178 -0.6901 -0.6901
vn 0.2566 -0.2566 -0.9318
vn 0.6901 -0.2178 -0.6901
vn 0.5773 -0.5774 -0.5774
vn -0.9318 0.2566 0.2566
vn -0.6901 0.2178 0.6901
vn -0.2566 0.2566 0.9318
vn -0.2178 0.6901 0.6901
vn -0.2566 0.9318 0.2566
vn -0.6901 0.6901 0.2178
vn -0.5773 0.5774 0.5774
vn 0.2566 0.2566 0.9318
vn 0.6901 0.2178 0.6901
vn 0.9318 0.2566 0.2566
vn 0.6901 0.6901 0.2178
vn 0.2566 0.9318 0.2566
vn 0.2178 0.6901 0.6901
vn 0.5773 0.5774 0.5774
vn -0.9318 0.2566 -0.2566
vn -0.6901 0.6901 -0.2178
vn -0.2566 0.9318 -0.2566
vn -0.2178 0.6901 -0.6901
vn -0.2566 0.2566 -0.9318
vn -0.6901 0.2178 -0.6901
vn -0.5773 0.5774 -0.5774
vn 0.9318 0.2566 -0.2566
vn 0.6901 0.2178 -0.6901
vn 0.2566 0.2566 -0.9318
vn 0.2178 0.6901 -0.6901
vn 0.2566 0.9318 -0.2566
vn 0.6901 0.6901 -0.2178
vn 0.5773 0.5774 -0.5774
vn -0.2585 -0.9660 -0.0000
vn -0.7071 -0.7071 -0.0000
vn -0.9660 -0.2585 -0.0000
vn -0.0000 -0.9660 0.2585
vn -0.0000 -0.7071 0.7071
vn -0.0000 -0.2585 0.9660
vn 0.2585 -0.9660 -0.0000
vn 0.7071 -0.7071 -0.0000
vn 0.9660 -0.2585 -0.0000
vn -0.0000 -0.9660 -0.2585
vn -0.0000 -0.7071 -0.7071
vn -0.0000 -0.2585 -0.9660
vn -0.9660 0.2585 -0.0000
vn -0.7071 0.7071 -0.0000
vn -0.2585 0.9660 -0.0000
vn -0.0000 0.2585 0.9660
vn -0.0000 0.7071 0.7071
vn -0.0000 0.9660 0.2585
vn 0.9660 0.2585 -0.0000
vn 0.7071 0.7071 -0.0000
vn 0.2585 0.9660 -0.0000
vn -0.0000 0.2585 -0.9660
vn -0.0000 0.7071 -0.7071
vn -0.0000 0.9660 -0.2585
vn -0.9660 -0.0000 -0.2585
vn -0.7071 -0.0000 -0.7071
vn -0.2585 -0.0000 -0.9660
vn 0.9660 -0.0000 -0.2585
vn 0.7071 -0.0000 -0.7071
vn 0.2585 -0.0000 -0.9660
vn 0.9660 -0.0000 0.2585
vn 0.7071 -0.0000 0.7071
vn 0.2585 -0.0000 0.9660
vn -0.9660 -0.0000 0.2585
vn -0.7071 -0.0000 0.7071
vn -0.2585 -0.0000 0.9660
vn -1.0000 -0.0000 -0.0000
vt 0.016975 0.000000
vt 0.983025 0.000000
vt 0.016975 0.000000
vt 0.016975 0.016975
vt 0.983025 0.016975
vt 0.983025 0.983025
vt 0.016975 0.983025
vt 1.000000 0.016975
vt 1.000000 0.983025
vt 1.000000 0.983025
vt 1.000000 0.016975
vt 0.983025 1.000000
vt 0.016975 1.000000
vt 0.016975 1.000000
vt 0.983025 1.000000
vt 0.000000 0.016975
vt 0.000000 0.016975
vt 0.000000 0.008858
vt 0.000000 0.008499
vt 0.008499 0.016975
vt 0.008858 0.008858
vt 0.016975 0.008499
vt 0.008858 0.000000
vt 0.008499 0.000000
vt 0.991143 0.000000
vt 0.991501 0.000000
vt 0.983025 0.008499
vt 0.991142 0.008858
vt 0.991501 0.016975
vt 1.000000 0.008858
vt 1.000000 0.008499
vt 0.000000 0.983025
vt 0.000000 0.991501
vt 0.000000 0.991142
vt 0.008499 1.000000
vt 0.008858 1.000000
vt 0.016975 1.000000
vt 0.016975 0.991501
vt 0.008858 0.991142
vt 0.008499 0.983025
vt 1.000000 0.991143
vt 1.000000 0.991501
vt 0.991501 0.983025
vt 0.991142 0.991142
vt 0.983025 0.991501
vt 0.991142 1.000000
vt 0.991501 1.000000
vt 1.000000 0.008499
vt 0.991501 0.016975
vt 0.000000 0.991143
vt 0.016975 0.991501
vt 0.008858 1.000000
vt 1.000000 0.991143
vt 0.991501 1.000000
vt 0.991143 1.000000
s 0
usemtl Material.001
f 3/1/1 13/2/1 61/2/1 50/3/1
f 51/4/2 63/5/2 87/6/2 74/7/2
f 15/8/3 37/9/3 85/10/3 62/11/3
f 39/12/4 26/13/4 75/14/4 86/15/4
f 2/4/5 27/7/5 38/6/5 14/5/5
f 1/16/6 4/17/6 6/18/6 5/19/6
f 4/17/7 8/20/7 9/21/7 6/18/7
f 2/4/8 7/22/8 9/21/8 8/20/8
f 7/22/9 11/3/9 12/23/9 9/21/9
f 3/1/10 10/24/10 12/23/10 11/3/10
f 10/24/11 5/19/11 6/18/11 12/23/11
f 6/18/12 9/21/12 12/23/12
f 13/2/13 16/2/13 18/25/13 17/26/13
f 16/2/14 20/27/14 21/28/14 18/25/14
f 14/5/15 19/29/15 21/28/15 20/27/15
f 19/29/16 23/11/16 24/30/16 21/28/16
f 15/8/17 22/31/17 24/30/17 23/11/17
f 22/31/18 17/26/18 18/25/18 24/30/18
f 18/25/19 21/28/19 24/30/19
f 25/32/20 28/33/20 30/34/20 29/32/20
f 28/33/21 32/35/21 33/36/21 30/34/21
f 26/13/22 31/37/22 33/36/22 32/35/22
f 31/37/23 35/38/23 36/39/23 33/36/23
f 27/7/24 34/40/24 36/39/24 35/38/24
f 34/40/25 29/32/25 30/34/25 36/39/25
f 30/34/26 33/36/26 36/39/26
f 37/9/27 40/9/27 42/41/27 41/42/27
f 40/9/28 44/43/28 45/44/28 42/41/28
f 38/6/29 43/45/29 45/44/29 44/43/29
f 43/45/30 47/15/30 48/46/30 45/44/30
f 39/12/31 46/47/31 48/46/31 47/15/31
f 46/47/32 41/42/32 42/41/32 48/46/32
f 42/41/33 45/44/33 48/46/33
f 49/17/34 52/19/34 54/18/34 53/17/34
f 52/19/35 56/24/35 57/23/35 54/18/35
f 50/3/36 55/3/36 57/23/36 56/24/36
f 55/3/37 59/22/37 60/21/37 57/23/37
f 51/4/38 58/20/38 60/21/38 59/22/38
f 58/20/39 53/17/39 54/18/39 60/21/39
f 54/18/40 57/23/40 60/21/40
f 61/2/41 64/26/41 66/25/41 65/2/41
f 64/26/42 68/48/42 69/30/42 66/25/42
f 62/11/43 67/11/43 69/30/43 68/48/43
f 67/11/44 71/49/44 72/28/44 69/30/44
f 63/5/45 70/27/45 72/28/45 71/49/45
f 70/27/46 65/2/46 66/25/46 72/28/46
f 66/25/47 69/30/47 72/28/47
f 73/32/48 76/32/48 78/50/48 77/33/48
f 76/32/49 80/40/49 81/39/49 78/50/49
f 74/7/50 79/51/50 81/39/50 80/40/50
f 79/51/51 83/14/51 84/52/51 81/39/51
f 75/14/52 82/35/52 84/52/52 83/14/52
f 82/35/53 77/33/53 78/50/53 84/52/53
f 78/50/54 81/39/54 84/52/54
f 85/10/55 88/42/55 90/53/55 89/10/55
f 88/42/56 92/54/56 93/55/56 90/53/56
f 86/15/57 91/15/57 93/55/57 92/54/57
f 91/15/58 95/45/58 96/44/58 93/55/58
f 87/6/59 94/43/59 96/44/59 95/45/59
f 94/43/60 89/10/60 90/53/60 96/44/60
f 90/53/61 93/55/61 96/44/61
f 27/7/62 2/4/62 8/20/62 34/40/62
f 34/40/63 8/20/63 4/17/63 29/32/63
f 29/32/64 4/17/64 1/16/64 25/32/64
f 2/4/65 14/5/65 20/27/65 7/22/65
f 7/22/66 20/27/66 16/2/66 11/3/66
f 11/3/67 16/2/67 13/2/67 3/1/67
f 14/5/68 38/6/68 44/43/68 19/29/68
f 19/29/69 44/43/69 40/9/69 23/11/69
f 23/11/70 40/9/70 37/9/70 15/8/70
f 38/6/71 27/7/71 35/38/71 43/45/71
f 43/45/72 35/38/72 31/37/72 47/15/72
f 47/15/73 31/37/73 26/13/73 39/12/73
f 73/32/74 49/17/74 53/17/74 76/32/74
f 76/32/75 53/17/75 58/20/75 80/40/75
f 80/40/76 58/20/76 51/4/76 74/7/76
f 50/3/77 61/2/77 65/2/77 55/3/77
f 55/3/78 65/2/78 70/27/78 59/22/78
f 59/22/79 70/27/79 63/5/79 51/4/79
f 62/11/80 85/10/80 89/10/80 67/11/80
f 67/11/81 89/10/81 94/43/81 71/49/81
f 71/49/82 94/43/82 87/6/82 63/5/82
f 86/15/83 75/14/83 83/14/83 91/15/83
f 91/15/84 83/14/84 79/51/84 95/45/84
f 95/45/85 79/51/85 74/7/85 87/6/85
f 25/32/86 73/32/86 77/33/86 28/33/86
f 28/33/87 77/33/87 82/35/87 32/35/87
f 32/35/88 82/35/88 75/14/88 26/13/88
f 85/10/89 37/9/89 41/42/89 88/42/89
f 88/42/90 41/42/90 46/47/90 92/54/90
f 92/54/91 46/47/91 39/12/91 86/15/91
f 15/8/92 62/11/92 68/48/92 22/31/92
f 22/31/93 68/48/93 64/26/93 17/26/93
f 17/26/94 64/26/94 61/2/94 13/2/94
f 49/17/95 1/16/95 5/19/95 52/19/95
f 52/19/96 5/19/96 10/24/96 56/24/96
f 56/24/97 10/24/97 3/1/97 50/3/97
f 25/32/98 1/16/98 49/17/98 73/32/98
